<?xml version="1.0" encoding="utf-8"?>
<!-- Generator: Adobe Illustrator 16.0.0, SVG Export Plug-In . SVG Version: 6.00 Build 0)  -->
<!DOCTYPE svg PUBLIC "-//W3C//DTD SVG 1.1//EN" "http://www.w3.org/Graphics/SVG/1.1/DTD/svg11.dtd">
<svg version="1.1" id="Layer_1" xmlns="http://www.w3.org/2000/svg" xmlns:xlink="http://www.w3.org/1999/xlink" x="0px" y="0px"
	 width="500px" height="414.5px" viewBox="0 0 500 414.5" enable-background="new 0 0 500 414.5" xml:space="preserve">
<path fill="#FFFFFF" d="M382.312,382.68c7.91-10.115,19.022-19.092,21.336-32.404c1.556-8.916,0.69-17.963,1.636-26.92
	c1.088-10.388,4.976-20.278,5.996-30.69c0.504-5.142,0.676-10.404-1.072-15.332c-1.884-5.324-6.044-8.66-7.276-14.312
	c-0.912-4.156-0.694-8.929-0.84-13.168c-0.096-2.756-1.694-20.584,3.332-20.584c0,0,10.512,14.713,16.816,18.912l4.204-2.623
	c0,0-18.912-27.849-18.912-34.152c0-6.292-251.224-0.028-252.184,0c4.32-0.104,12.708,51.22,13.344,55.76
	c1.58,11.248,3.112,22.76,1.928,34.12c-0.88,8.452-6.344,15.151-8.72,23.092c-1.984,6.624-1.3,13.624-1.3,20.468
	c0,3.624-7.216,11.641-8.808,15.124c-2.144,4.704-6.44,13.636-3.848,18.908c5.132,10.42,29.896,6.052,39.02,4.688
	c0.704-0.108,1.816-20.35,2.008-22.43l14.712,11.82L226.8,347.35c0,0-52.536-42.229-6.304-96.869c0,0,42.027,1.299,69.352-9.908
	c6.42,10.697,15.889,20.162,19.394,32.396c2.65,9.248,0.656,20.44-0.48,29.881c-7.312,10.863-14.53,21.801-21.858,32.655
	c-5.752,8.536-28.836,33.716-5.844,37.646c13.114,2.244,18.959,0.728,25.326-10.465c4.816-8.473,8.354-16.651,15.584-23.367
	c6.312-5.85,10.048-10.137,8.86-19.682c-2.052-16.439,8.812-21.939,20.483-31.527c0,0,13.399-21.012,2.893-31.523
	c0,0-1.18-8.408,3.02-6.3c8.04,15.124,15.792,25.972,15.616,43.6c-0.106,10.24,1.528,20.716-0.468,30.856
	c-1.146,5.828-3.477,11.416-4.244,17.312c-0.972,7.536-4.864,13.908-9.452,19.78c-2.544,3.248-8.492,6.62-9.3,10.916
	c-1.052,5.54,3.952,8.092,7.324,12.031"/>
<path fill="#FFFFFF" d="M434.416,239.928c9.352,7.057,5.476,42.68,1.656,47.752c-3.828,5.068-7.208-20.92-16.562-27.976
	c-9.358-7.063-10.496-15.464-6.676-20.536C416.664,234.096,425.06,232.876,434.416,239.928z"/>
<path fill="#FFFFFF" d="M367.02,100.792c-12.388-7.496-45.96,2.088-45.96,2.088c-72.546,43.532-116.076,8.292-116.076,8.292
	c-30.764-28.484-52.74-38.788-66.312-42.308c-3.112-1.34-6.388-2.364-9.792-3.036c0.652-24.18,0.948-52.08-4.74-52.08
	c-5.852,0-16.412,29.532-21.688,54.164c-0.208,0.076-0.42,0.152-0.628,0.228C93.84,61.212,78.54,30.252,78.54,21.004
	c0-0.176,0.02-0.352,0.02-0.524c-0.056,0.008-0.112,0-0.168,0.008c-10.168,1.668-15.564,20.416-12.044,41.88
	c1.82,11.116,5.68,20.752,10.384,27.256c-4.104,7.172-6.484,15.456-6.484,24.312c0,2.28,0.212,4.508,0.512,6.708
	c-0.216,0.324-0.448,0.628-0.664,0.956c0.08,1.004,0.152,2.152,0.152,3.18c0.004,19.6-27.096,43.22-1.94,59.22h27.384
	c7.22-5.584,14.492-10.36,20.972-16.996c24.92,0.552,36.5,32.996,36.5,32.996H297.34h7.145h105.253c3.392-12,5.3-20.16,5.3-30.248
	C415.036,136.472,394.488,107.972,367.02,100.792z M200.98,183.1l-14.112-7.42l-14.112,7.42l2.692-15.72l-11.416-11.128
	l15.776-2.292l7.06-14.3l7.056,14.3l15.776,2.292l-11.416,11.128L200.98,183.1z M261.779,183.1l-14.111-7.42l-14.112,7.42
	l2.696-15.72l-11.416-11.128l15.78-2.292l7.056-14.3l7.057,14.3l15.775,2.292l-11.416,11.128L261.779,183.1z M322.584,183.1
	l-14.108-7.42l-14.116,7.42l2.701-15.72l-11.42-11.128l15.779-2.292l7.062-14.3l7.056,14.3l15.775,2.292l-11.416,11.128
	L322.584,183.1z M385.876,183.1l-14.116-7.42l-14.116,7.42l2.7-15.72l-11.416-11.128l15.78-2.292l7.056-14.3l7.058,14.3
	l15.774,2.292L383.18,167.38L385.876,183.1z"/>
</svg>
