<?xml version="1.0" encoding="utf-8"?>
<!-- Generator: Adobe Illustrator 16.0.0, SVG Export Plug-In . SVG Version: 6.00 Build 0)  -->
<!DOCTYPE svg PUBLIC "-//W3C//DTD SVG 1.1//EN" "http://www.w3.org/Graphics/SVG/1.1/DTD/svg11.dtd">
<svg version="1.1" id="Layer_1" xmlns="http://www.w3.org/2000/svg" xmlns:xlink="http://www.w3.org/1999/xlink" x="0px" y="0px"
	 width="500px" height="395.5px" viewBox="0 0 500 395.5" enable-background="new 0 0 500 395.5" xml:space="preserve">
<path fill="#FFFFFF" d="M74,184v52.3v15.552V340h39.164c-0.172-2.132-0.276-4.292-0.276-6.48c0-37.939,27.28-68.703,60.924-68.703
	s60.92,30.76,60.92,68.703c0,2.188-0.096,4.349-0.276,6.48h23.612h18.144h0.024c0.447-41.684,20.084-75.24,44.575-75.24
	c0.488,0,1.188,0.032,1.188,0.068v-12.977V236.3V184H74z"/>
<path fill="#FFFFFF" d="M394,240v22.229c0,20.047-8.88,36.291-20,36.291c-11.128,0-20-16.248-20-36.291V184h-43.072
	c-0.644,4-0.928,6.272-0.928,9.296v96.376C310,317.468,338.648,340,374,340c35.344,0,64-22.532,64-50.328V240H394z"/>
<rect x="74" y="184" fill="#FFFFFF" width="280" height="72"/>
<path fill="#FFFFFF" d="M214.08,63.056C137.452,63.056,75.232,112,74.04,176h280.076C352.92,112,290.704,63.056,214.08,63.056z
	 M157.848,151.736l-15.508-8.156l-15.512,8.156l2.964-17.268l-12.548-12.232l17.34-2.52L142.34,104l7.756,15.712l17.34,2.52
	l-12.548,12.232L157.848,151.736z M229.848,151.736l-15.508-8.156l-15.512,8.156l2.964-17.268l-12.548-12.232l17.34-2.52L214.34,104
	l7.756,15.712l17.34,2.52l-12.548,12.232L229.848,151.736z M305.852,151.736l-15.512-8.156l-15.512,8.156l2.96-17.268
	l-12.548-12.232l17.344-2.52L290.34,104l7.752,15.712l17.344,2.52l-12.552,12.232L305.852,151.736z"/>
</svg>
